<svg version="1.2" xmlns="http://www.w3.org/2000/svg" viewBox="0 0 1385 1212" width="1385" height="1212">
	<title>monsters-7466505-svg</title>
	<style>
		.s0 { fill: #211d22 } 
		.s1 { fill: #fff383 } 
		.s2 { fill: #008dd2 } 
		.s3 { fill: #a2d9f7 } 
		.s4 { fill: #2b2a29 } 
		.s5 { fill: #56698f } 
		.s6 { fill: #e31e24 } 
		.s7 { fill: #fefefe } 
		.s8 { fill: #090807 } 
		.s9 { fill: #7688a1 } 
		.s10 { fill: #ee7620 } 
		.s11 { fill: #000000 } 
		.s12 { fill: #fabb60 } 
		.s13 { fill: #ffff00 } 
		.s14 { fill: #0a0302 } 
		.s15 { fill: #8dfafa } 
		.s16 { fill: #fcfcfc } 
		.s17 { fill: #fad8fc } 
		.s18 { fill: #180117 } 
		.s19 { fill: #c53aa4 } 
		.s20 { fill: #d2cde7 } 
		.s21 { fill: #0bc6f5 } 
		.s22 { fill: #b7cbd8 } 
		.s23 { fill: #9caeb9 } 
		.s24 { fill: #9d9e9e } 
		.s25 { fill: none } 
		.s26 { fill: #1c1b17 } 
		.s27 { fill: #fefb96 } 
		.s28 { fill: #009846 } 
		.s29 { fill: #dbe285 } 
		.s30 { fill: #f01126 } 
		.s31 { fill: #faf8f8 } 
		.s32 { fill: #040404 } 
		.s33 { fill: #5eb77b } 
		.s34 { fill: #11b608 } 
		.s35 { fill: #ab2725 } 
		.s36 { fill: #cb0819 } 
		.s37 { fill: #ebecec } 
		.s38 { fill: #4f4b4a } 
	</style>
	<g id="Слой_x0020_1">
		<g id="_1940624731744">
			<g>
				<path fill-rule="evenodd" class="s0" d="m1940-1161c0 0-11-15-13-17-13-19-33-38-49-54-19-18-63-45-85-55-28-12-50-20-80-24-6-1-8-1-14-2-8-1-47-2-53 1-6 2-39 4-52 8-7 2-16 3-25 5-15 4-46 14-54 23 0 1 0 3 0 4 22 2 47 7 69 12 24 5 49 13 73 19 14 4 26 10 38 15 8 3 42 23 49 28 2 2 4 3 7 5l1 1 13 11c4 2 5 4 7 6 0 0 1 0 1 1 1 0 1 0 2 1l5 6c4 4 9 8 12 12 3 3 8 9 9 11 0 0 26 32 33 43 4 7 9 15 13 21 3 5 4 8 9 14 1 1 5 17 6 20-7 2-23-1-31-2-28-2-54-11-81-16-14-3-18 2-13 15 1 2 24 31 30 37 7 7 13 13 19 20 2 1 2 2 3 3l2 2c2 2 2 3 4 5 3 2 4 3 5 5 2 1 4 3 5 5-1 2-2 2-3 3l-6 1c-11 3-22 6-32 9-11 3-39 12-22 28 16 15 28 19 48 27 3 1 4 1 4 4-9 1-12 2-23 2-11-1-18 1-29 1-11 0-53-1-59 5-12 12 22 36 27 41 2 1 26 19 25 23-1 7-77 14-90 15-4 1-22 2-25 5-9 9-2 27 7 35 12 12 10 9-8 25-7 6-39 32-41 39-3 13 40 14 46 13 17-6 9 0 4 12-7 13-16 31-21 43-7 16-17 34-25 50-15 31-31 60-47 90l-3 7c-1 1 0 0-1 1l-10 18c-1 2-2 4-3 5l-3 4c-1 2-1 4-2 6l-2 3v1l-7 11c0 1 0 1 0 2l-5 7c-1 2-2 5-3 7-1 3-4 6-7 11l-5 11v1c-8 16-20 39-26 55q-4.5 13.5-9 27c-3 12-7 47-4 54 3 8 7 23 9 30 1 2 4 6 5 9l3 4c0 1 0 1 0 1 3 5 7 12 11 16l3 3c1 0 1 0 1 0l26 25c0 0 0 1 1 1 1 0 1 1 2 1l9 6c3 1 2 1 4 3l8 3c3 2 5 2 8 4l9 3c3 1 6 3 10 3l10 2c3 2 10 3 15 3 3 0 4-1 6-3l3-2c2-2 3-7 1-12 0 0 0-1-1-2l-13-13-7-6-1-1-15-19c-1-2 0 0-1-2l-3-4c-3-5-1 2-3-7-1-1-2-4-2-5-1-2-1-3-2-5-1-3-1-2-2-6 0-2-1-2-1-5 0-5-1-13 0-18 0-3 1-3 1-8l4-18c0-2 0-4 1-6l2-5c3-8 2-4 4-10 3-5 4-6 6-11l5-6c1-2 1-3 3-4l3-3c1-2 3-2 4-4 2-1 3-3 4-3l13-7c2-1 4-2 6-2 8 0 11 0 18 4l6 4c3 4 9 10 10 15 1 2 2 3 3 5l5 12c2 5 2 11 4 16l2 9q4.5 15 6 30l2 11c1 4 1 8 2 12l3 8c0 3 0 1 1 3l9 25c1 1 1 2 2 3 0 1 0 0 0 1l2 3c1 1 1 2 1 3l5 6 11 10c1 0 1 0 1 0l1 1c3 2 6 3 11 3 34 3 42-3 39-39-1-12-3-25-4-38-3-45-5-101-3-147 0-8 2-13 1-23 0-2 1-26 3-21 7 16 8 29 20 43 11 12 22 25 33 37 1 1 18 15 19 16 12 9 20 15 33 23 9 5 16 10 25 16 2 2 17 9 15 12-5 7-12 37-13 47-3 20-2 41 1 61 1 10 10 32 15 39 2 3 21 23 21 25-2 4-27 26-32 28-11 4-35 4-45-3-2-2-14-13-17-13-6 0-4 13 0 18 18 26 67 27 93 22 26-5 89-31 87-63-2-14-10-36-13-54-3-18-1-53 7-70 4-9 21-1 28-1 14 0 27 2 42 2 26 1 56 3 81 0h3c4 0 0 0 4-1 11-1 23 0 32-1 4-1-1-1 10-2 2 0 1 0 3-1l25-4c1 0-1 0 2 0 3-1 5 0 7-1 4-2 11-2 15-3 0 0 0 0 0-1 0 0 0 0 1 0l15-4c8-1 42-13 44-13 4 1 5 10 6 14 7 24 12 46 3 70-7 19-21 50-15 66 6 16 18 11 22 19 6 12 23 28 36 36 18 10 36 16 57 15 14 0 31-7 43-12 6-2 22-15 20-22-1-5-6-6-12-4-1 1-2 2-7 4-15 5-11 8-32 7-16 0-33-13-40-27-6-10-2-6 5-19 14-24 14-26 22-53 0-2 4-25 4-28 4-42 2-64-12-104-3-10 4-11 12-16 14-8 24-14 36-22 17-11 40-30 54-44 13-13 31-34 39-51 5-13 6 35 6 39 2 16 3 31 5 48 1 9 1 17 3 26 1 6 2 18 3 24 2 21 5 44 7 65 1 9 3 20 5 30 2 14 10 37 24 43 46 16 52-75 59-104 5-18 18-58 40-62 24-4 55 33 68 48 6 9 14 25 17 35 11 32 12 59-10 86-12 14-38 23-38 41-1 18 16 20 30 16 13-4 38-14 52-21 32-17 56-37 70-72 18-45-2-113-22-154-6-13-12-23-20-36-7-12-33-44-43-55-12-12-25-26-36-39-7-8-18-23-25-32-31-40-59-82-88-123-13-17-14-8 18-16 54-12 21-38-8-53-13-8-27-16-40-23-13-7-13-4 4-17 58-43 26-48-25-56-9-1-64-12-69-15-12-7 74-53 28-56-11 0-76 1-80-1-3-3 17-16 18-17 11-8 34-25 18-39l-3-3c-19-12-48-10-52-13-4-2 7-14 9-17 7-9 15-18 23-27 7-8 20-25 17-36l-2-4c-1-2-4-2-6-4-3-4 4-8 6-11 21-24 44-49 70-68 25-19 42-29 69-43 40-21 100-34 145-42 21-4 21-5 2-19-40-26-90-35-136-38-18-1-23-1-40 0-44 4-79 13-119 32-75 33-107 69-160 128-16 19-16 12-36 1-2-22 3-44 5-66 1-7 0-11-1-17-8-2-14-2-19 5-3 5-26 26-32 34-3 3-19 20-21 20-4 1-18-1-19-6-1-5 5-34 6-40 1-12 7-60 0-65-9-7-13 1-18 8-18 20-37 48-53 71-5 5-16 27-25 16-4-4-15-47-19-56-2-5-17-50-26-46-10 4-24 57-26 66-2 8-8 44-11 45-11 6-14 2-22-7-10-11-39-49-50-51-13-3-11 19-11 27-1 28 2 29-13 6z"/>
				<path fill-rule="evenodd" class="s1" d="m2202-405c26-21 55 0 77 16 2 1 18 11 16 14-2 4-56 20-65 23-11 4-32 22-40 8-8-15-3-39 5-54 2-3 4-4 7-7zm-281-16l5-2c36-14 43 40 23 58-11 9-37-26-43-34-5-10 8-19 15-22zm459-23c-10 9-19 18-30 28-4 3-21 20-23 21-7 3-17-46-1-67 14-15 37-4 51 7 6 4 9 6 4 10zm-240 116c-15 2-30 4-45 4-1 1-24 3-16-2 16-11 36-22 54-27 30-2 66 17 21 24-5 1-9 1-14 1zm-150-27c25-2 45 0 60 22 4 6 7 10-2 9-10-1-77-16-76-26 5-4 12-4 18-5zm38-14l7-6c6-4 20-7 27-4 3 2 5 0 8 4 5 5 3 1 4 5 5 10 8 24 1 33-4 6-2 7-7 6 0-2 0-3-1-5l-2-6c-2-4 0-3-5-9l-6-7c-4-3-2-2-8-5l-9-3c-5-1-5 0-10 0 0-3 0-1 1-3z"/>
				<path fill-rule="evenodd" class="s1" d="m2279-528c-12 1-21-11-17-20 2-7 29-13 37-16 5-2 21-12 22-4 2 14-11 26-21 33-6 3-13 7-21 7zm-174 10c-4 37-43 45-66 21-5-5-18-27-13-32 4-4 52-1 60 0 9 0 20-1 19 11zm-111-18c16 3 7 18 1 26-14 21-47 19-64 3-13-12-8-49-4-46 15 10 49 14 66 16zm176 3c1-1 52-8 60-9 7-2 19-9 20 0 2 26-9 44-34 50-13 3-19 3-28-6-11-10-12-18-17-31 0-1-1-4-1-4z"/>
				<path fill-rule="evenodd" class="s2" d="m1773-801c3-12 4-24 7-36 3-13 7-29 9-42-1-5-22-4-26-4-7 0-50 2-55 3-3 1-12 1-4 5 10 7 52 36 53 43 0 24-97 33-117 34-26 3 16 20 20 25 7 9-17 24-23 29-5 4-35 25-33 32 1 5 19 0 23-1 4-1 45-12 46-10 1 2-10 9-12 12-9 10-17 28-23 40-2 3-3 7-5 10l-1 1c-14 27-27 58-42 85 2-4-18 36-24 48-15 29-31 58-46 87-11 20-22 38-32 59-28 61-45 134 16 182 9 7 45 31 57 28 6-2-10-19-12-22-27-38-30-71-12-114 11-28 30-53 63-55 40 3 51 60 56 92 4 33 12 80 48 93 7 1 19 0 22-7 4-10 0-25-1-36-4-46-7-90-6-136 0-21 1-38 2-59 1-5 1-10 1-15 0-18 2-39 3-57 3-60 10-115 21-175 6-31 12-63 18-95 2-15 5-29 9-44z"/>
				<path fill-rule="evenodd" class="s3" d="m1770-839c-1 7-8 12-19 17 4-3 6-7 6-10-1-7-43-36-53-43-8-4 1-4 4-5 1 0 4-1 8-1 11 7 53 35 54 42zm-98 59c7 9-17 25-23 29-5 4-35 25-33 32 1 6 19 0 23 0 4-1 45-12 46-10 1 1-10 9-12 11-9 10-17 28-23 41-2 3-3 6-5 10-1 0-1 0-1 1-14 26.9-26.9 56.8-41.9 83.7-0.3 0.9-17.5 37.9-24.1 48.3-15 30-31 58-46 88-11 20-22 38-31 59-29 61-46 133 15 181 7 6 27 19 43 26 3 4 5 8 2 9-12 3-48-21-57-28-61-48-44-121-16-182 10-21 21-39 32-59 15-29 31-58 46-87 6-12 26-52 24-48 15-27 28-58 42-85l1-1c2-3 3-7 5-10 6-12 14-30 23-40 2-3 13-10 12-12-1-2-42 9-46 10-4 1-22 6-23 1-2-7 28-28 33-32 6-5 30-20 23-29-4-5-46-22-20-25 1 0 3 0 5 0 5 6 24 15 27 18zm-70 198q0.1-0.1 0.1-0.3 0.1 0-0.1 0.3zm10 214c41 2 51 60 56 91 4 34 12 81 48 93 3 1 6 1 10 0-3 7-16 8-22 7-36-13-44-60-48-93-5-32-16-89-56-92-8 1-14 2-20 4 9-6 19-10 32-10z"/>
				<path fill-rule="evenodd" class="s2" d="m2320-246c0 2 0 2 0 4 5 21 5 21 0 44-3 12-16 52-14 64 1 6 14 7 19 9 13 3 37-5 47-15 16-18 23-64 24-86 1-7 1-10 2-16 0-8-3-37-4-42-1-2-8-37-15-34-20 9-39 18-58 27l-3 2h-1l-5 2c-1 1-1 1-1 1-2 0-1 0-4 0 0 3 2 5 3 8l1 3v1l6 21c1 0 1 0 1 1z"/>
				<path fill-rule="evenodd" class="s3" d="m2333-124c13-1 31-8 39-16 16-18 23-64 24-86 1-7 1-10 2-16 0-8-3-37-4-42-1-2-8-37-15-34-3 1-6 3-10 4 5 8 10 31 10 32 2 6 5 35 4 42 0 7-1 9-1 16-1 22-8 69-25 86-5 6-15 11-24 14z"/>
				<path fill-rule="evenodd" class="s2" d="m2524-577c4 17 6 35 10 52 5 28 1 60-17 83-15 20-31 34-50 51-8 8-6 4-12 10-15 11-41 29-58 38-33 17-65 33-99 48-26 11-61 20-90 25-5 1-13 2-19 3-13 1-26 3-39 4-29 2-69 3-98 1-22-1-44-2-66-5-24-3-33-6-55-14-50-19-99-50-138-86-2-2-3-3-5-5-8-8-21-24-21-24-10-11-17-30-22-43 0-2-1-9-1-9-5-6-5-61-4-67 1-4 1-12 1-13 3-8 0-10 2-15 2-8 1-16 3-24 3-13 2-14 5-29 0-2 3-19 3-21 1-13 4-25 6-37 3-18 7-38 10-56 2-14 4-28 8-42 11-54 22-109 36-163 1-3 15-50 15-51 0-9-20-27-25-32-11-11-18-19-28-29-1-1-24-21-15-20 17 3 26 7 43 8 9 1 22 3 30 4 9 0 16 2 24 1 6 0 18 3 21-1 0 0-4-26-4-29 0-4-5-37-5-37 2-2 48 25 53 27 2 1 34 22 25 9-16-23-49-43-75-52-29-9-13 19-20 22-1-1-13-22-16-26-25-35-47-59-80-85-25-19-53-30-82-41-7-2-32-10-38-12-10-2-21-5-30-7-6-1-2-1-7-2-7 0-28-6-32-6-7 1-9-1-14-1-7 0-7-1-12-1-22 0 23-12 23-12 47-11 82-15 130-12 7 1 10 2 15 2 12 1 18 4 30 5 21 4 37 10 56 20 6 3 18 8 18 8 17 10 27 15 42 26 13 10 19 16 30 27 7 7 29 33 32 38 1 1 2 4 2 4 5 3 13 18 16 23 9 14 13 24 20 37 2 4 7 12 12 7 5-5 1-43 0-52 0-3-2-18 3-14 3 2 27 33 32 39 10 12 7 15 27 11 21-5 24-2 27-25 2-15 10-67 17-78 3 3 9 19 10 24 6 18 9 53 21 63 7 6 34 8 37 3 16-22 31-45 46-67 2-3 8-14 12-12 1 14-2 34-3 49-1 6-7 35-6 38 2 2 17 5 20 5 9 1 8 3 17 5 7 2 17-11 21-16 10-10 19-21 29-31 10-10 1 38 0 42-1 15-7 20 11 24 6 2 10 5 15 6 8 2 17 11 22 4 11-17 24-31 37-46 23-25 39-38 65-58 20-14 38-24 60-34 15-7 31-12 47-16 2-1 14-3 14-3 9-3 13-2 20-4 11-3 23-3 34-3 56-1 102 2 155 19 24 8 22 10 1 14-23 6-45 10-67 16-46 12-83 30-120 57-18 12-29 22-44 36-18 15-27 27-41 43-8 10-4 20-17 23-13 3-49 14-59 5-10-9-6-60-5-74 0-35-8-24-25-9-20 17-40 53-53 76-6 13 5 3 5 3l1-2c3-4 6-8 9-11 9-12 25-34 35-43 24-21 10 63 17 78l1 1c9 6 60-4 77-5 2 0 12-4 11-2-5 9-11 11-16 19-4 6-7 8-10 12-3 4-8 8-9 10-6 9-13 16-19 24 0 1 1 2 1 3v1c0 0 0 1 1 1v2c1 2 2 5 2 7l2 3 1 1 4 10c0 1 0 1 1 1l10 31c1 1 1 1 1 2l3 10c1 6 3 10 4 15 0 1 0 1 0 1l3 10c0 0 0 0 1 0 1 2 0 0 0 3l8 33c1 2 1 4 1 6l13 51c0 1 0 1 0 2 1 3 0 0 1 2l1 4c0 2 0 1 0 1 2 4 2 11 3 15l2 8c1 3 0 1 1 4 2 6 2 11 4 17 2 8 0 5 2 10 0 1 0 3 0 4 1 4 1 0 2 3 0 2 0 3 0 5 1 2 0-1 1 1l2 11c0 5 0 3 1 7l7 35v1c4 20 7 41 11 61zm-656 125c10 33 18 47 39 72 27 32 59 46 99 58 14 4 44 9 58 9 38 1 78-3 115-8 60-7 134-51 178-91 35-32 46-48 54-94 6-41-2-101-7-142-1-6-1-22-8-10-13 22-12 24-31 43-41 41-107 57-163 68-18 3-34 3-50 5-19 3-34 2-51 4-24 2-82-3-108-8-35-6-67-11-96-36-13-11-10-15-17-24-5 3-13 52-15 64q-9 45 3 90z"/>
				<path fill-rule="evenodd" class="s2" d="m2521-659c0 0 0 0 0 1l7 31c0 3 0 1 1 3 0 0 0-1 0 2 1 7 1 3 2 8v4c1 0 1 0 1 0 1 4 1 9 2 12 0 5 1 0 1 5 0 3 0 2 1 5l3 16c1 2 0 5 1 7l1 2c0 3 0 6 1 8 1 6-1 4 1 7l1 3c0 8 0 4 1 9 1 3 0 6 1 9 0 2 0-1 0 2q0 1.5 0 3c0 6 0 7 2 12 1 4-1 8 1 12 1 3 0-2 0 3v9c0 13 1 8 2 11 1 7-1 16 0 22 3 9 1 19 1 28 0 4 2 3 2 11 0 13 1 10 1 18v9c1 3 1 0 1 2 2 6 0 14 1 19 0 4 1 0 1 11 0 7 2 6 2 11 0 6 1 7 1 12 0 4 1 4 1 7 1 3 0 7 1 10 1 1 1 0 1 6 0 4 1 6 1 11 0 5 0 3 1 5 1 2 0 4 1 6 0 5 1 2 1 6 0 1 0 4 0 6 1 4 1-1 2 5q0 3 0 6c0 2 1 1 1 5 0 8 1 7 2 11 0 6 0 2 1 5q0 3 0 6c1 4 1 2 1 6l1 5c1 2 1 6 2 8 1 2 1 9 2 13h1c0 1 0 1 0 1l1 1c2 5 1 6 5 10 4 4 7 6 10 7 10 1 5 4 14-5l2-3c0-1 0-1 0-1l5-9c4-6 5-14 7-20l5-16c0-2 0-3 0-5 1-4 1-1 1-4 1-6 3-11 4-17 0-2 1-8 1-8l2-9c2-5 3-11 5-16 0-1 0-1 0-1 0-1 0-1 0-1l5-13h1l3-8c0 0 0 0 0-1l1-1 2-2c1-3 2-4 3-7 6-8 0-1 8-10l11-9v-1c12-5 7-2 17-4 0 0 6 0 8 0 9 1 17 7 24 12l3 1c4 4 3 2 5 5l3 2c1 1 1 1 1 2 1 0 1 0 2 1l7 8c2 1 2 1 2 2l10 11c0 2 0 1 1 2l1 1c2 4 3 3 4 6 1 1 1 1 1 2 1 0 0 0 1 1l5 7c0 1 1 2 1 2v1l7 13c0 1 1 2 1 3l3 7c0 1 0 1 0 2 1 2 1 1 1 2l1 1c1 2 1 5 1 7 1 4 1 0 1 3l3 13c1 2 0 4 1 7v1c2 3 1 22 0 25l-1 4c0 1 0 1 0 3l-7 18c-2 4-6 11-9 14-2 2-4 5-6 8-2 2-4 2-6 4l-1 1c-2 3-3 3-5 4l-11 7c0 1 0 1 0 1-2 1-2 1-3 2-3 2-5 6-8 7l1 8c1 1 1 1 1 2 3 0 2 0 4-1l1-1c3 0 6 1 8 0l15-5h1l5-2c3-1 6-1 9-3l3-1c0-1 0-1 1-1l7-3 6-2c3-2 7-4 9-6 3-2 6-2 8-4l1-1c0-1 1-1 1-1v-1h1l15-11c1-1 0 0 1-1l3-2c0 0 0 0 1 0l8-9c0 0 0 0 1 0l14-21 1-1 8-20c0-1 0-1 0-1 1-2 0-1 0-3 1-4 2-6 2-10 0-7 3-16 0-28-1-4 0-8-1-13l-1-5v-1l-2-6c0-2 0-3 0-4-1-3 0 0-1-2-2-4-2-8-3-12-2-3-1 0-2-5 0-2-2-4-4-11-1-4-3-7-4-11l-11-25c-1-2 0-1-1-3l-6-12c-2-5-3-6-5-10l-3-4c0 0 0 0 0-1l-4-6c-1-1-1-2-1-3-2-3-5-5-6-8-12-16-20-26-32-40-11-13-23-27-34-39-5-5-9-11-13-16h-1l-1-2c-2-3-4-4-6-7v-1l-4-4c0 0 0-1-1-1-8-12-15-21-24-34-9-14-20-28-30-43-8-10-15-22-23-33-8-11-16-22-24-34-9-12-20-15 3-14 1 0 29-4 30-4 5-2 18-3 20-9 0 0-6-6-7-7-4-3-13-8-17-10 4 3-36-19-50-25-5-2-31-13-32-15-2-4 20-14 24-17 7-5 12-9 20-14 2-1 20-15 19-16-1-2-26-5-32-7-7-1-32-6-29-5 0 0-24-6-27-7-9-2-18-4-28-7-2 0-23-3-24-8-1-5 5-7 10-11 9-9 24-23 34-29 6-3-3-3-7-3-9-2-55-5-58 4-1 4 3 13 3 13 0 0 4 15 4 17 3 8 2 17 5 24 1 3 4 18 6 23 6 22 12 48 16 70 3 14 7 27 10 40 2 5 3 11 5 17z"/>
				<path fill-rule="evenodd" class="s3" d="m2745-131c1 0 1 0 2 0l4-2c3-1 7-1 9-3l4-1c0-1 0-1 0-1l7-3c1 0 1 0 1 0l5-2c3-2 7-4 10-6 2-2 5-2 7-4l1-1c1-1 1-1 2-1v-1l16-11c0-1-1 0 1-1l3-2 9-9 15-21v-1l8-20c0-1 0-1 0-1 1-2 1-1 1-3 0-4 1-6 1-10 0-7 3-16 1-28-1-4 0-8-2-13v-5c-1 0-1-1-1-1l-1-6c-1-2-1-3-1-4-1-3 0 0-1-2-2-4-1-8-3-12-1-3 0 0-1-5-1-2-2-4-4-11-1-4-4-7-5-11l-10-25c-1-2-1-1-2-3l-6-12c-1-5-2-6-5-10l-2-4c0 0-1 0-1-1l-4-6c0-1 0-2-1-3-2-3-4-5-6-8-12-16-19-26-32-40-11-13-22-27-33-39-5-5-9-11-14-16l-1-2c-2-3-4-4-6-7-1 0-1-1-1-1l-3-4-1-1c-8-12-16-21-24-34-10-14-20-28-31-43-7-10-15-22-22-33-8-11-17-22-25-34-9-12-20-15 4-14 1 0 29-4 30-4 5-2 18-3 19-9 0 0-5-6-7-7-3-3-13-8-16-10 4 3-37-19-50-25-5-2-31-13-32-15-2-4 19-14 23-17 8-5 13-9 20-14 2-1 20-15 19-16-1-2-25-5-32-7-6-1-31-6-28-5 0 0-25-6-27-7-9-2-19-4-28-7-1 0-10-1-16-3-1-4-1-9-2-13q1.5-1.5 3-3c10-9 24-23 35-29 5-3-4-3-8-3-3-1-11-2-19-2 14-1 33 1 39 2 4 0 13 0 7 3-10 6-25 20-34 29-5 4-11 6-10 11 1 5 22 8 24 8 10 3 19 5 28 7 3 1 27 7 27 7-3-1 22 4 29 5 6 2 31 5 32 7 1 1-17 15-19 16-8 5-13 9-20 14-4 3-26 13-24 17 1 2 27 13 32 15 14 6 54 28 50 25 4 2 13 7 17 10 1 1 7 7 7 7-2 6-15 7-20 9-1 0-29 4-30 4-23-1-12 2-3 14 8 12 16 23 24 34 8 11 15 23 23 33 10 15 21 29 30 43 9 13 16 22 24 34 1 0 1 1 1 1l4 4v1c2 3 4 4 6 7l1 2h1c4 5 8 11 13 16 11 12 23 26 34 39 12 14 20 24 32 40 1 3 4 5 6 8 0 1 0 2 1 3l4 6c0 1 0 1 0 1l3 4c2 4 3 5 5 10l6 12c1 2 0 1 1 3l11 25c1 4 3 7 4 11 2 7 4 9 4 11 1 5 0 2 2 5 1 4 1 8 3 12 1 2 0-1 1 2 0 1 0 2 0 4l2 6v1l1 5c1 5 0 9 1 13 3 12 0 21 0 28 0 4-1 6-2 10 0 2 1 1 0 3 0 0 0 0 0 1l-8 20-1 1-14 21c-1 0-1 0-1 0l-8 9c-1 0-1 0-1 0l-3 2c-1 1 0 0-1 1l-15 11h-1v1c0 0-1 0-1 1l-1 1c-2 2-5 2-8 4-2 2-6 4-9 6l-6 2-7 3c-1 0-1 0-1 1l-3 1c-3 2-6 2-9 3l-5 2h-1l-15 5c-2 1-5 0-8 0l-1 1c-2 1-1 1-4 1 0-1 0-1-1-2l-1-2zm-154-60l3-3c0-1 0-1 0-1l5-9c3-6 5-14 6-20l5-16c1-2 1-3 1-5 0-4 0-1 1-4 1-6 3-11 3-17 0-2 2-8 2-8l2-9c2-5 2-11 4-16 0-1 1-1 1-1 0-1 0-1 0-1l5-13 3-8c0 0 1 0 1-1l1-1 1-2c1-3 2-4 4-7 5-8 0-1 8-10l10-9c1 0 1-1 1-1 12-5 7-2 16-4 0 0 7 0 8 0 2 1 3 1 4 1-2 0-4 1-9 3v1l-11 9c-8 9-2 2-8 10-1 3-2 4-3 7l-3 3c0 1 0 1 0 1l-3 8h-1l-5 13c0 0 0 0 0 1 0 0 0 0 0 1-2 5-3 11-5 16l-2 9c0 0-1 6-1 8-1 6-3 11-4 17 0 3 0 0-1 4 0 2 0 3 0 5l-5 16c-2 6-3 14-7 20l-5 9c0 0 0 0 0 1l-2 3c-9 9-4 6-14 5-2-1-4-2-7-4 1 0 1 0 1-1z"/>
				<path fill-rule="evenodd" class="s4" d="m2257-961h2c34-2 68 10 94 31 26 21 44 52 46 87v2c2 37-11 70-34 95-22 25-54 41-91 43-35 2-69-11-95-33-12-9-22-21-29-33-7 19-17 37-31 52-24 26-59 44-99 46-39 2-76-11-105-35-28-24-48-58-51-96 0-1 0 0 0-2-2-39 12-75 36-101 25-27 59-44 98-47 0 0 0 0 2-1h3c38-1 75 12 103 35 13 11 25 25 34 40 6-15 14-28 25-40 22-24 54-40 89-43 1 0 0 0 3 0zm4 54c0 0 0 0-1 0-1 0 0 0-2 0-21 2-40 11-53 26-13 14-20 32-19 52 0 1 0 0 0 1 1 20 12 38 28 51 15 13 36 21 57 20 22-2 41-11 54-25 14-15 21-35 20-56 0-1 0 0 0-1-1-20-11-37-26-49-16-13-37-20-58-19zm-256 9c0 0 0 0-1 0-1 0 0 0-2 0-25 2-46 13-62 30-15 16-23 37-22 60 0 1 0 0 0 2 2 22 14 43 32 58 19 15 42 24 67 23 25-1 47-12 62-29 16-17 24-40 23-65 0 0 0 1 0-1-1-22-13-42-31-56-18-15-42-23-66-22z"/>
				<path fill-rule="evenodd" class="s2" d="m1963-209c3-17 4-24 8-41 3-11-2-8-14-12-19-5-30-8-48-16-5-2-14-4-13 4 0 1-8 32-10 40-4 24-4 49 6 72 3 8 17 31 25 34 9 3 38 1 50-1 4-1 3-1 8-2 1 0-7-27-7-30-3-15-6-33-5-48z"/>
				<path fill-rule="evenodd" class="s3" d="m1912-277c-1 0-2-1-3-1-5-2-14-4-13 4 0 1-8 32-10 40-4 24-4 49 6 72 3 8 17 31 25 34 5 2 16 2 26 1-4 0-7 0-10-1-8-3-21-26-25-34-10-23-9-48-5-72 1-8 9-39 9-40q0-1.5 0-3z"/>
				<path fill-rule="evenodd" class="s5" d="m1758-938c4 4 35 22 39 21 4-1 8-16 10-20 8-23 2-19-18-13-1 0-36 9-33 11 0 0 1 1 2 1z"/>
				<path fill-rule="evenodd" class="s5" d="m2463-941c-15-1-16-6-9 17 1 3 6 21 10 21 4-1 39-28 33-30-10-5-21-7-33-8z"/>
				<path fill-rule="evenodd" class="s6" d="m1936-440c42-7 41 35 34 63-1 6-7 18 2 17 10 0 35-4 42-11 13-11 15-17 35-22 25-5 45 13 42 38l-1 5c-1 10-1 7 10 0 14-10 35-21 53-17 4 0 11 5 16 8 10 8 5 3 7-14 2-14 2-13 7-25 7-17 29-32 48-31 14 0 27 6 39 13 10 6 38 27 42 28-7-27-11-52 3-78 11-23 32-22 52-11 23 13 22 34 29-8 4-25 0-44-7-68-4-14-29-28-42-30-17-3-13 15-19 29-7 18-20 27-35 37-8 5-29 2-36 7-6 5-9 12-19 18-19 13-49 17-65-2-8-9-15-26-16-40-3 0-37-1-37 2 0 0 9 27-10 48-9 9-24 13-36 14-17 0-30-3-43-16-10-9-11-15-16-27-2-6-3 0-6 5-12 16-24 24-44 27-27 5-46-18-54-40-5-13-7-13-18-3-23 21-21 56-13 83 2 9 4 16 11 24 3 4 0 8 11-2 12-11 19-18 34-21z"/>
				<path fill-rule="evenodd" class="s7" d="m1875-803c5 69 73 125 144 121 77-4 130-66 127-139-3-71-73-125-145-120-74 4-132 66-126 138z"/>
				<path fill-rule="evenodd" class="s7" d="m2142-824c5 63 67 114 132 110 70-4 118-61 115-127-2-64-67-113-132-109-67 4-120 60-115 126z"/>
				<g>
					<path fill-rule="evenodd" class="s8" d="m2023-874c-6 10-15 23-29 23-14-1-24-15-24-27-68 44-20 134 52 122 73-12 76-126 5-131-1 9 1 5-4 13z"/>
					<path fill-rule="evenodd" class="s7" d="m1970-878c0 12 10 26 23 27 15 0 24-13 30-23 1-17-8-24-25-24-17-1-25 5-28 20z"/>
					<path fill-rule="evenodd" class="s9" d="m1970-878c3-15 11-21 28-20 17 0 26 7 25 24 5-8 3-4 4-13 71 5 68 119-5 131-72 12-120-78-52-122zm-58 64c13 115 196 106 187-17-4-49-52-87-103-80-50 6-89 47-84 97z"/>
				</g>
				<g>
					<path fill-rule="evenodd" class="s8" d="m2278-892c-6 10-15 23-28 22-14 0-23-14-23-25-65 42-19 128 50 117 70-11 73-121 4-126 0 9 2 4-3 12z"/>
					<path fill-rule="evenodd" class="s7" d="m2227-895c0 11 10 25 23 25 13 1 22-12 28-22 1-16-7-23-24-23-16 0-24 5-27 20z"/>
					<path fill-rule="evenodd" class="s9" d="m2227-895c3-15 11-20 27-20 16 0 25 7 24 23 5-8 3-3 3-12 69 5 66 115-4 126-69 11-116-75-50-117zm-55 61c12 111 188 102 179-16-4-47-49-84-99-77-48 6-85 45-80 93z"/>
				</g>
			</g>
			<g>
				<path fill-rule="evenodd" class="s10" d="m517 357h347c201 0 365 164 365 366-14 240-161 359-391 382-73 7-144 7-217 1-181-16-301-8-409-182-8-12-14-24-21-36-27-55-38-104-39-165 0-202 164-366 365-366z"/>
				<path fill-rule="evenodd" class="s11" d="m877 112c-7 19-28 36-17 58 11 21 18 30 29 55 3 7 15 62 19 57 15-19 42-38 64-47 7-3 2-34 1-43 0-7.9-14.5-64.9-15-66 15 3 42 36 49 49 16 26 0 52 7 54 18 3 53-27 77-31 32-6 43-5 76-16 13-4 33-19 35-18 3 10-24 39-32 45-3 4-29 18-29 18 3 3-80 13-61 32 15 16 15 15 27 31 3 5 34-15 40-18 62-26 85 11 83 11-17 5-22-3-47 7-42 17-69 40-59 89 4 24 8 37 14 61 5 17 8 39 12 54 7 26-9 47-11 37-5-37-29-46-37-68-3-6-3-12-6-10-24 27-43 35-78 45-25 8 4 74-5 78 0 0-22-26-27-31-16-16-25-45-27-47-9-6-6 49-6 49 1 47-36-16-40-25-10-23-8-52-15-59-13-14-29-42-29-60-3-54-8-10-29-8-6 1 3 36 4 41 12 51-4 45-29 13-17-22-9-35-35-30-9 1-5 56-6 65 0 10-6 33-14 11-6-16-13-30-19-46-2-7-3-30-11-32-58-9-85-49-91-50-5-1-25 53-77 62-23 4-28 35-30 55-1 19 10 56-4 65-15 8-18-36-24-43-17-23-6-77-21-80-29-5-37-15-59-32-6-5-1 34 1 41 21 69 22 47-4 109-2 5-7 31-8 32-12 5-14-39-15-48-9-50 6-43-23-14-13 13-34 19-37 32-5 22-10 16-16 41-3 11-8 23-16 6-16-32 1-40-42-51-48-12-70-52-79-97-8-43 3-89 33-120 15-16-19-57 5-107 7-15 24-20 25-9 3 20 0 18 6 42 3 12 15 36 28 31 32-14 35 8 35-33-1-47 42-73 36-91-7-19 21 12 10 36-6 12-12 39-12 54-2 38-3 32 18 48 1 1 22 18 22 18 2-1 13-45 15-51 22-56 28-34 29-103 1-14-6-60-12-71-14-23 39 20 50 59 10 37-8 41 15 36 34-7 47-5 77 5 10 4 9-46 8-52 0-7-12-42-3-36 15 10 33 37 41 53 7 16 10 66 21 66 1 0 39-52 40-53 17-38-28-71-26-117 1-10 5-26 13-10 16 35 16 32 39 58 19 21 16 39 40 35 24-4 58-2 73-5 1-1 34-34 42-41 14-12 27-24 25-46-2-18 10 1 11 10 3 31-3 36-12 61zm81 14q0 0 0 0 0 0 0 0zm-904 449c41 1 75 20 109 41 6 3 6-3 3 15-1 5-5 12-9 8-11-11-32-20-47-26-28-12-62-30-92-18-1 0-1 0-1 0l-14 5c-2 1 1 1-3 1 1-2 0 0 1-2l3-4h1l7-5c2-2 6-3 7-5 1-2 2-2 4-3 12-5 17-7 31-7zm1252-45c-9 2-35 23-46 30-10 5-66 29-70 12-3-12 2-13 11-17 35-10 34-6 64-29 36-28 49 1 45 2-1 1-2 1-4 2zm-51 89c-3 1-48 18-51 12-8-16 5-16 17-20 31-10 51-27 77-36 29-10 48 5 53 5 0 7 1 4-12 6-13 1-9 2-15 3-18 3-46 19-61 26-3 2-5 3-8 4zm-43 48c0-4 27-16 26-16 2-1 5-2 7-3 12-8 25-15 39-18 23-5 31-10 56-5 13 3 11 0 11 9-9 1-10 1-16 3-20 3-52 14-68 22-2 1-35 16-39 17-16 3-15 6-16-7zm-1007-146c10 2-4 17-6 24-14-4-31-12-46-16-42-13-39-10-77-33-11-7-24-11-12-21 15-12 33 3 45 13 19 15 57 29 81 33zm-181 25c8-4 10-10 22-15 21-9 54 10 74 19 27 14 28 11 55 22 10 4 7 14 3 16-12 9-89-30-113-35-15-3-32-2-42-4 0-1 0-3 1-3z"/>
				<path fill-rule="evenodd" class="s7" d="m970 487c-46 0-66-32-81-69-18-43-3-100 28-134 25-29 45-37 83-41 26-4 55 9 73 28 20 20 43 61 41 87-2 34-6 70-33 94-34 29-65 36-111 35zm49-161c-70 23-1-41 3-6 0 3 0 5-3 6zm-391-35c8 48-6 92-50 115-38 20-63 19-105 4-28-11-62-45-66-77-5-44 9-90 44-118 69-54 161-6 176 73 0 1 0 2 1 3zm-435 103c7-26 8-40 26-60 29-31 37-31 73-43 31-10 67 9 89 30 30 30 31 78 22 117-9 40-36 81-79 89-69 13-115-13-130-81-2-13-4-40-1-52zm81 75c53 26 114-18 112-74-1-41-48-83-87-73-40 10-61 26-70 64-6 32 16 69 45 83zm-12-90c-17 27-33 0-19-12 10-7 23 7 19 12zm242-141c-101 24-36 160 41 123 43-21 57-74 21-107-17-15-40-21-62-16zm5 23c-26 19-29-22-4-14 6 3 9 11 4 14zm298-8c-22-47-62-67-111-45-92 43-19 178 64 146 37-14 57-47 52-86-2-9-1-8-5-15zm73 68c-15 38-27 53-64 73-21 12-54 17-77 10-47-13-74-16-98-64-12-24-11-61-7-87 7-52 54-93 103-107 62-18 134 28 148 88 5 24 5 62-4 84zm196 47c1-35-19-45-42-59-24-13-69 9-75 36-9 40 16 75 56 79 24 2 35-10 35-9 16-10 24-33 24-33 2-1 2-12 2-14z"/>
				<path fill-rule="evenodd" class="s7" d="m707 210c0 3-2 2-1 6 0 1 0 1 0 2l3 4c1 0 1 0 1 0l5 2c3 0 14 0 17-4 1-2 1-1 2-3 3-3-1-8-3-11-2 0-2 0-3-1 0 0-2-2-6-1-3 1 0 0-3 1-3 1-4 1-6 2-3 2-2 2-6 3z"/>
				<path fill-rule="evenodd" class="s11" d="m288 964c-11 18 49 47 28 23-28-34-5-4 29 10 18 7 6 36 23 66 9 17 4 56 34 68 12 5 69 19 22 2-49-18-50-115-31-119 0 0 99 7 108 8 22 0 100 10 121 13 86 14 206 5 297-2 77-5 63-48 80 36 12 57-51 107-19 81 66-55 22-132 41-153 12-14 39-29 59-54 10-12 17-27 25-41 43-86 17-193-62-249-64-45-131-62-206-80-67-15 76 31 72 48-5 15-95 40-113 35-4-1-69 22-79 24-92 24-215 30-309 15-8-1-17-2-22-8 1-3 53-23 4-13-37 7-74 12-101 42-43 49-52 114-30 175 6 16 20 32 20 48-1 9 12 19 9 25z"/>
				<path fill-rule="evenodd" class="s12" d="m382 1049h3c0 3 2 3 5 4 1 0 1 0 2 0 4 1 8 2 11 3h1c0 0 1 0 2 1l15 3c2 0 2 0 4 0l21 5c2 0 4 0 6 1 2 0 2 1 5 1 1 0 1 0 3 0l7 1c5 1 12 1 16 3h3c6 1 4 1 8 1l4 1c2 0-1 0 1 0l9 1c4 0 0 1 4 1l9 1c1 0 3 0 3 0 3 0 1 0 3 0 3 1 4 0 6 1 3 0 0 0 2 0 2 1 2 1 4 1 6 1 3 0 10 1 3 0 2 0 5 0q1.5 0 3 0c2 1 1 1 2 1 4 1 9 0 13 1 0 0 3 1 5 1 6-1 6 0 12 0 4 0 3 1 5 1 7 1 6 0 12 1 3 0 7 0 10 0 2 1 5 1 9 1 4 0 0 1 4 1 2 0 10 0 13 0 5 0 7 1 12 1 12 0 7 0 11 1 4 0 55 0 65 0 6 0 4 0 8-1h4c2-1 13 0 16 0 2 0 3 0 5 0 9-1 15 0 18-1l4-1c5 0 0 0 4-1q4.5 0 9 0c5-1-1 0 4-1 1 0 3 0 5 0 3 0-1 0 3-1 3 0 6 1 9 0 2-1 6 0 8-1l4-1c6 0 8 0 13-1 4-1 7 0 11 0 4-1 1-1 6-1 6 0 5-1 8-1 6-1 3-1 8-1 7-1 8-2 13-2 5 0 0 0 3-1 6-1 3 0 11-1 1-1 0 0 2-1 2 0 0 1 2 0l10-2c2 0 4 0 7-1l9-2c2-1 6 0 9-1v-1l11-2c2 0 4 0 6-1 2-1-2 0 1-1l11-2c0 0 0 0 1 0l1-1 10-2c0 0 0 0 1 0l3-1c2-1 1 0 2-1 1 0 0 0 1 0 2-1 1-2 5-1-1-3-1 0-2-3 0-1 0-1 0-2l-2-3c-1-4-2-8-3-11-1-3-1 1-1-5-1-2-2-2-2-4 0-2-1-3-1-5l-1-2c-2-1-1 1-1-2-3 0-7 1-9 2-1 1-1 0-1 1-2 1-3 1-5 1-5 1-3 1-7 3-3 1-9 1-13 2h-1l-3 1c-1 0-1 0-4 0-4 1-3 0-8 1-4 1-10 0-14 1-8 1-11 0-19 1-5 0-24 0-31 0-6 0-2 1-9 1-1 0-2 0-2 0-4 0 0 0-2 0-2 1-31 2-34 2-6 0-11-1-14 0-4 1-10 0-15 1-2 0-1 0-4 0-16 1-97 1-106 1-5-1 2-1-9-1-3 0-8 0-10-1-2 0 0 0-2 0l-16-1c-9 0-6-1-9-1-5 0-12 0-17-1-6-1-4 0-10-1l-18-1c-10-1-6-1-9-2-6 0-16 0-19 0l-1-1c-5-1-12 0-18-1-3 0-4 0-9 0-3-1-7 0-10-1 0 0 0 0-4-1-1 0-3 0-5 0-5 0-3 0-9-1-3 0-5 0-9 0-3 0-5 0-9 0l-27-1c-4 0-8 0-11 0-4 0-4-1-9-1-3 0-7 0-9 0-2-1 0-1-4-1h-15c-5 0-3-2-8-2-5 0-14-1-19 0-1 3-2 6-2 9 0 3-1 1-1 4-1 2-1 2-1 4z"/>
				<path fill-rule="evenodd" class="s13" d="m464 1001c41 3 94 6 134 11 36 4 62 10 75-29 18-51-14-81-61-90-41-8-121-8-149 27-9 12-18 79 1 81z"/>
				<path fill-rule="evenodd" class="s13" d="m747 1020c25 1 110 7 123-10 27-33 23-86-30-95-32-5-94-3-117 24-14 16-16 35-10 56 5 23 13 25 34 25z"/>
				<path fill-rule="evenodd" class="s7" d="m1054 688c1-8-80-72-103-58-13 8-207 61-226 64-97 17-143 20-240 25-47 2-110-27-146-17-30 7-42 22-32 54 16 54 76 32 95-22 7-19 10 36 48 61 10 6 35-2 44-16 16-25 12-22 19-41 4-12-1-35 32-2 17 17 45 43 70 38 57-12 57-73 78-63 45 20 52 70 99-7 23-38 18-28 73-41 56-13 34-13 52 19 1-7 15 54 29 49 56-22 63-67 65-68 2 0 40 35 43 25z"/>
				<path fill-rule="evenodd" class="s7" d="m427 987c7-14 20-47 6-74-9-20-84 0-107 5 0 1-44 14-40 19 47 52 77 60 131 64 2-3 4-6 7-9 1-2 2-3 3-5z"/>
				<path fill-rule="evenodd" class="s12" d="m1094 982c-3 0-6 1-10 2-3 1-6 2-9 4l-1 1c11-13 30-27 44-47 8-13 15-26 21-40 36-84 14-189-51-244-33-27-66-43-101-56-29-19-88-42-45-31 62 17 118 34 170 78 66 54 87 159 52 244-7 13-13 27-21 39-15 22-35 36-46 49-1 0-2 0-3 1zm-41 158c-1 1-1 1 0-1z"/>
				<path fill-rule="evenodd" class="s12" d="m187 746c-23 59 4 101 36 152 25 38 7-14 3-36-26-168 89-190 96-207-36-7-107 47-127 78z"/>
			</g>
			<g>
				<path fill-rule="evenodd" class="s14" d="m366-205l-9 9c-5 39 17 21 25 34 9 14 2 29 17 44 14 2 26-6 38-8 9-2 10 0 16 5 6 5 11 5 15 9h24c35-23 35 6 62-4 19-8 21-44 28-52 4-5 10-3 15-6 7-4 1-7 13-6 12 0 28-1 41-1 27 0 50-3 78-2 38 2 33-4 53 28 8 13 22 48 41 38 20-12 13-48 39-33 15 9 17 41 44 36 12-3 14-13 22-18 10-5 21-3 29-11 11-10 16-46 17-60 7-102 43-43 83-73 71-52 62-184 58-261-5-92-21-183-56-269-7-17-18-39-28-54-12-16-20-34-31-50-45-68-10-50 4-112 18-85-18-98-4-140 7-21 10-53 5-74-8-29-26-24-50-16-31 11-54 31-80 50-25 18-42 43-60 67-20 28-5 18-40 35-31 17-15 10-51 15-17 3-26 5-44 6-8 1-35 5-40 3-8-3-28-38-51-33-14 3-6 14 0 21 12 13 8 12-7 18-7 3-34 15-38 5-1 0-25-8-28-10-22-10-28-32-40-51-17-28-41-61-65-83-22-19-97-80-122-39l-2 3c-4 9-10 36-12 46-4 20 1 30 3 49 5 37-19 54-9 101 7 30 5 68 26 92 23 27 42 30 19 71-56 96-81 276-80 386 0 82-8 121 39 194 13 22 39 46 64 52 18 5 30 0 44 14 13 12-6 32-15 35z"/>
				<path fill-rule="evenodd" class="s15" d="m681-813c28 70 102 102 173 74 31-13 51-38 64-69 12-29 8-85-12-109-8 11-50-17-56 37-3 23-17 45-34 61-14 13-9 11-28 19-14 7-19 9-36 10-16 1-29 1-43-3-22-7-15-4-28-20z"/>
				<path fill-rule="evenodd" class="s15" d="m405-897c-17 28-11 77 3 106 15 29 39 48 68 60 65 28 146-7 168-74-19 15-51 20-74 20-21 0-52-14-68-27-37-33-25-57-62-78-5-4-11-6-17-7-5-1-17 1-18 0z"/>
				<path fill-rule="evenodd" class="s16" d="m466-961c61-28 137-6 170 55 15 27 23 74 8 101-19 15-51 20-74 20-21 0-52-14-68-27-37-33-25-57-62-78-5-4-11-6-17-7-5-1-17 1-18 0 7-25 37-53 61-64zm100 111c51-4 44-83-10-76-52 6-47 80 10 76z"/>
				<path fill-rule="evenodd" class="s16" d="m744-970c28-13 71-13 99-1 22 10 53 31 63 54-8 11-50-17-56 37-3 23-17 45-34 61-14 13-9 11-28 19-14 7-19 9-36 10-16 1-29 1-43-3-22-7-15-4-28-20-25-55 10-132 63-157zm-17 70c-14 48 61 69 77 19 15-44-61-70-77-19z"/>
				<path fill-rule="evenodd" class="s16" d="m590-536c-17 1-14-37-31-44-19-8-36 33-29 39 5 5 53 9 63 10 30 4 41 2 69 1 12 0 121-18 123-23 2-5-15-43-31-41-18 1-13 44-24 49-11-1-17-42-41-38-17 3-21 46-31 48-8-3-16-45-33-42-22 4-26 34-35 41z"/>
				<path fill-rule="evenodd" class="s17" d="m801-1061l-1 10c4-2 28-42 34-51 13-18 24-30 38-46 12-14 85-72 101-68 6 10-2 47-2 60l2 1 11-23c1-22 28-84-23-57-60 31-143 107-160 174z"/>
				<path fill-rule="evenodd" class="s16" d="m586-683c-14 8 23 80 54 43 6-8 7-13 9-22 1-11 5-22-6-22-6 0-56 1-57 1z"/>
				<path fill-rule="evenodd" class="s16" d="m654-682c0 2 16 35 19 39 13 17 49 8 50-21 1-15 4-20-10-19-9 0-54-1-59 1z"/>
				<path fill-rule="evenodd" class="s16" d="m581-683c-10-1-15 1-24 3-28 5-41-10-35 18 5 29 33 34 46 20 4-5 13-35 13-41z"/>
				<path fill-rule="evenodd" class="s16" d="m767-683c-7 1-42-2-38 6 6 10 10 22 21 28 12 8 25-3 31-13 11-20 7-24-14-21z"/>
				<path fill-rule="evenodd" class="s16" d="m811-606c-9 2-12 28-14 36-7 25-1 13 20 7 29-10 28-9 22-22-4-8-18-24-28-21z"/>
				<path fill-rule="evenodd" class="s16" d="m920-709c-5 0-8 6-16 7-6 1-14 3-20 5-14 6-24 3-8 27 16 24 49-19 44-39z"/>
				<path fill-rule="evenodd" class="s16" d="m846-689c-9 1-38 3-41 3-9 3 7 26 12 29 15 11 32 0 37-22 2-10 3-12-8-10z"/>
				<path fill-rule="evenodd" class="s16" d="m427-686c-8 8 13 24 17 27 8 5 18 21 27 6 4-9 11-31-6-29-8 0-37-6-38-4z"/>
				<path fill-rule="evenodd" class="s16" d="m479-681c-6 12 9 51 27 24 2-4 11-22 6-24-2-1-32-1-33 0z"/>
				<path fill-rule="evenodd" class="s16" d="m512-546c1-5-14-46-29-29-8 9-3 14 7 18 3 2 21 11 22 11z"/>
				<path fill-rule="evenodd" class="s16" d="m859-585c4-1 0 0 7-5 4-2 20-12 20-16 0-3-16-17-21-7-2 4-3 9-4 14-1 4-4 11-2 14z"/>
				<path fill-rule="evenodd" class="s14" d="m366-764c-5-7 8-12 15-6 20 15 2 29 8 44 12 31 55 33 84 34 41 2 72 0 113-2 91-5 252 11 330-23 11-5 27-17 32-27 7-17-22-22-4-39 5-5 13-11 20-7 11 5-6 10-9 11-3 2-5 5-3 7 4 4 6-1 9-3 8-3 22 0 21 8l-21-2c-1 12 6 16-2 30-5 10-10 11-18 17-11 7-10 40-14 56-10 40-22 62-54 87-29 23-64 32-99 42-31 8-88 19-120 20-74 4-163-6-210-71-13-18-15-26-23-47-3-8-7-19-7-27-1-9 1-23-6-30-9-7-11-2-22-14-6-8-6-17-13-22-10-6-10-1-6-12 1-3-10 7-13-5 8-13 23-4 28-6 4-10-13-8-16-13zm117 189c-8 9-3 14 7 18 3 2 21 11 22 11 1-5-14-46-29-29zm314 5c-7 25-1 13 20 7 29-10 28-9 22-22-4-8-18-24-28-21-9 2-12 28-14 36zm69-20c4-2 20-12 20-16 0-3-16-17-21-7-2 4-3 9-4 14-1 4-4 11-2 14 4-1 0 0 7-5zm-360-67c2-4 11-22 6-24-2-1-32-1-33 0-6 12 9 51 27 24zm223-20c6 10 10 22 21 28 12 8 25-3 31-13 11-20 7-24-14-21-7 1-42-2-38 6zm-89 37c6-8 7-13 9-22 1-11 5-22-6-22-6 0-56 1-57 1-14 8 23 80 54 43zm-83-40c-28 5-41-10-35 18 5 29 33 34 46 20 4-5 13-35 13-41-10-1-15 1-24 3zm116 37c13 17 49 8 50-21 1-15 4-20-10-19-9 0-54-1-59 1 0 2 16 35 19 39zm-208-39c-8 0-37-6-38-4-8 8 13 24 17 27 8 5 18 21 27 6 4-9 11-31-6-29zm340-4c-9 3 7 26 12 29 15 11 32 0 37-22 2-10 3-12-8-10-9 1-38 3-41 3zm99-16c-6 1-14 3-20 5-14 6-24 3-8 27 16 24 49-19 44-39-5 0-8 6-16 7zm-345 122c-19-8-36 33-29 39 5 5 53 9 63 10 30 4 41 2 69 1 12 0 121-18 123-23 2-5-15-43-31-41-18 1-13 44-24 49-11-1-17-42-41-38-17 3-21 46-31 48-8-3-16-45-33-42-22 4-26 34-35 41-17 1-14-37-31-44z"/>
				<path fill-rule="evenodd" class="s18" d="m379-1071c-12-3-35-19-42-30-10-17-5-41 17-43 56-6 57 79 25 73zm-32-32c1 1 26 17 27 17 23 5-1-53-22-44-10 5-14 19-5 27z"/>
				<path fill-rule="evenodd" class="s18" d="m916-1092c-4 2-13 19-21 8-5-6 3-18 7-23 24-29 34 0 43 4 1-2 6-29-22-30-46-2-51 45-37 60 11 12 33-13 30-19z"/>
				<path fill-rule="evenodd" class="s14" d="m855-718c-34 15-78 12-111-2-35-16-51-34-69-67-12-22-18-5-24 10-9 18-15 24-29 37-28 27-58 37-96 38-73 1-134-47-148-119-13-68 31-143 95-167 65-24 152 9 178 75 8 20 10 27 18 2 7-22 10-26 24-44 20-26 55-43 88-45 163-15 229 214 74 282zm-12-253c-28-12-71-12-99 1-53 25-88 102-63 157 28 70 102 102 173 74 31-13 51-38 64-69 12-29 8-85-12-109-10-23-41-44-63-54zm-207 65c-33-61-109-83-170-55-24 11-54 39-61 64-17 28-11 77 3 106 15 29 39 48 68 60 65 28 146-7 168-74 15-27 7-74-8-101z"/>
				<path fill-rule="evenodd" class="s14" d="m556-926c-52 6-47 80 10 76 51-4 44-83-10-76z"/>
				<path fill-rule="evenodd" class="s14" d="m804-881c15-44-61-70-77-19-14 48 61 69 77 19z"/>
				<path fill-rule="evenodd" class="s19" d="m314-1117c1-19-5-39-6-59 0-11 6-48 12-55 7 1 48 34 57 41 18 15 33 31 49 49 16 17 26 39 39 58 5 7 15 23 19 30 6 12 7 35 15 34l-4-27 6 27c5 2 24-11 30-14 30-14 76-22 109-23 29-1 90 4 119 13l31 14 11-32-1 10c4-2 28-42 34-51 13-18 24-30 38-46 12-14 85-72 101-68 6 10-2 47-2 60l2 1 11-23-17 51c8 1 20-1 18 12-1 11-2 16-8 25-14 25 22 9 11 39-5 13-16 29-24 40-6 8-28 28-27 35 0 4 42 71 48 80 16 23 34 56 45 81 31 66 43 134 51 206 5 38 8 80 10 118 0 18 3 46 2 64-1 13-11 10-14 17-2 5 1 21-1 31v-28h-1l-34 12-2 11c0-3 1-8-1-11l-9 2c5-56-6-165-36-204-15 52 4 157 19 212-6-1-19-1-24-2-3-4 4-48-9-55-14-7-27 20-33 29-22 27-30 10-45 20-35 24-24 60-77 43-14-4-40-7-48-16-13-15-15-28-33-6-16 19-22 18-46 14-27-4-64-32-95-34-22-1-31 14-54 5-14-5-30-27-40-13-5 7-8 14-13 20-8 10-12 7-21 12-14 6-36-5-45-16-5-5-8-17-16-17-8 1-11 13-15 18-15 22-32-13-37-14-9 1-7 15-6 22 1 10-1 12-9 15l-6-7h-1c0-1 0-3 1-4 15-54 35-162 19-215-31 42-42 162-34 214 0 2 0 3 0 5h-6v1c-7 12 36 60 26 70v2l-23-4 11 1c6-7-11-37-14-45-3-8-2-20-9-22-7-2-20 0-28 0v1.1c-0.9-18.8-16.1-1.3-17-21.1-3-48-7-77-6-129 1-99 12-220 50-311 13-32 25-62 46-89 6-8 15-18 19-25-20-15-35-16-56-37-6-6-17-21-19-28-9-24 8-25 10-32-1-6-17-19-21-40-2-8-2-19 1-27 5-13 13-9 18-13l-3-13zm-30 758v-3.9q0.1 1.7 0 3.9zm409-596c-14 18-17 22-24 44-8 25-10 18-18-2-26-66-113-99-178-75-64 24-108 99-95 167 14 72 75 120 148 119 38-1 68-11 96-38 14-13 20-19 29-37 6-15 12-32 24-10 18 33 34 51 69 67 33 14 77 17 111 2 155-68 89-297-74-282-33 2-68 19-88 45zm-356-146c7 11 30 27 42 30 32 6 31-79-25-73-22 2-27 26-17 43zm558 17c-5-6 3-18 7-23 24-29 34 0 43 4 1-2 6-29-22-30-46-2-51 45-37 60 11 12 33-13 30-19-4 2-13 19-21 8zm-541 339c3 12 14 2 13 5-4 11-4 6 6 12 7 5 7 14 13 22 11 12 13 7 22 14 7 7 5 21 6 30 0 8 4 19 7 27 8 21 10 29 23 47 47 65 136 75 210 71 32-1 89-12 120-20 35-10 70-19 99-42 32-25 44-47 54-87 4-16 3-49 14-56 8-6 13-7 18-17 8-14 1-18 2-30l21 2c1-8-13-11-21-8-3 2-5 7-9 3-2-2 0-5 3-7 3-1 20-6 9-11-7-4-15 2-20 7-18 17 11 22 4 39-5 10-21 22-32 27-78 34-239 18-330 23-41 2-72 4-113 2-29-1-72-3-84-34-6-15 12-29-8-44-7-6-20-1-15 6 3 5 20 3 16 13-5 2-20-7-28 6zm663 372c-2 10-10 24-15 30l13-38c1 3 1 5 2 8z"/>
				<path fill-rule="evenodd" class="s20" d="m284-359v-2-3c8 0 21-2 28 0 2 1 3 2 4 4 2 0 3 0 5 0 2 16 35 56 26 64v2l-23-4c-15-5-34-46-40-61z"/>
				<path fill-rule="evenodd" class="s19" d="m352-1130c-10 5-14 19-5 27 1 1 26 17 27 17 23 5-1-53-22-44z"/>
				<path fill-rule="evenodd" class="s21" d="m342-367c0 0 20 41 23 48 9 13 20 30 30 42 15 19 25 20 25 46 0 10-5 62-3 66 4 1 16-22 19-27 4-8 11-27 20-28 10 15 17 64 21 69l2 1 23-47 7-13c16-16 23 61 37 63 2-16-1-21 5-38 3-8 3-29 10-34l240-5 15 77c7-4 24-73 38-76 12 2 33 66 52 77 6-8-9-75 0-77l38 40c3-7 0-43-1-52-1-9 1-18 1-27 0-14 2-11 10-18 5-4 21-24 25-30 3-4 23-32 23-33l14-41c-3-2-20-2-26-3-3-4 4-48-9-55-14-7-27 20-33 29-22 27-30 10-45 20-35 24-24 60-77 43-14-4-40-7-48-16-13-15-15-28-33-6-16 19-22 18-46 14-27-4-64-32-95-34-22-1-31 14-54 5-14-5-30-27-40-13-5 7-8 14-13 20-8 10-12 7-21 12-14 6-36-5-45-16-5-5-8-17-16-17-8 1-11 13-15 18-15 22-32-13-37-14-9 1-7 15-6 22 1 10-1 12-9 15z"/>
				<path fill-rule="evenodd" class="s22" d="m544-147h2c1-16 1-22 5-39 9-40 4-35 49-35 43 1 88-2 130-3 9 0 65-2 70 2 7 7 13 73 17 75 8-8 25-83 40-74 7 5 29 49 34 58 4 7 8 12 15 17 3-17-6-69-2-75 3-4 20 17 23 20 5 6 11 12 17 18 7-32-13-71 10-97 8-9 4-5-5-1-22 11-28 22-55 29-15 3-32 5-48 9-31 7-41 7-72 7-67 0-133 0-200 0-29 0-51 0-80-4-26-3-40-1-65-10-19-7-11 2-10 19 2 21-5 47-2 66 17-6 34-93 51-22 14 60 5 40 36-15 10-16 15-8 20 6 5 11 12 42 20 49z"/>
				<path fill-rule="evenodd" class="s23" d="m476-152c-4-10-11-67-23-64-11 2-25 49-36 51-2-3 3-68 3-68 21 5 28 7 51 8 18 0 21 2 37 4 8 2 44 3 47 9 1 2-3 24-4 27-5 18-3 22-5 38-15-6-20-75-37-61-5 4-26 48-30 58l-2-1zm285-72c4-2 15-12 5-2-1 1-3 3-5 2zm55 77c-2-10-6-30-8-40l-1-6c-3-18-4-21 13-22 29-2 36-17 21 11-9 18-14 42-24 56zm88 0l-1-1c-11-9-31-49-39-64-3-5-9-11-2-12 23-3 32-7 53-17 3-2 26-14 28-11 0 1 4 67 1 69-5-3-31-39-38-34-6 5 2 57 1 70z"/>
				<path fill-rule="evenodd" class="s17" d="m306-1128l8 11c1-19-5-39-6-59 0-11 6-48 12-55 7 1 48 34 57 41 18 15 33 31 49 49 16 17 26 39 39 58 5 7 15 23 19 30 6 12 7 35 15 34l-4-27c-18-54-65-114-107-153-15-13-63-55-83-45-12 6-4 43-4 56q0 16.5 0 33c0 10 4 18 5 27z"/>
				<path fill-rule="evenodd" class="s20" d="m1041-384c0 23-27 73-23 84 5 2 14-13 19-15 16-5 9 1 22-13 13-13 17-33 19-51v-28h-1l-34 12z"/>
			</g>
			<path fill-rule="evenodd" class="s24" d="m674 1480c12 18 29 10 27-6-1-9-12-30-16-37-9-18-50-90-50-108 0-17 18-23 32-14 12 8 29 50 38 68q18 34.5 36 69c14 28 10 57-14 74-29 19-47 21-77 4-11-7-22-14-30-22-5-5-9-7-14-13-2-3-4-5-6-7l-13-14c-2-3-3-4-7-7-4-4-8-9-12-14l-28-26c1 20 3 84-4 99-9 20-39 18-43-9-1-8 0-19 1-27 2-35 8-62 5-97-2-21-13-72 24-77 11-1 19 5 25 12 12 12 19 24 30 37l17 22c10 13 45 45 57 62zm503-180c41-4 85-5 127-8 14 0 28-4 42-4 2 4 2 9 3 14 3 22 3 24-6 43-9-1-15-3-25-3-17 0-65 2-79 4-3 9-4 46-5 58 18-2 117-24 124-23 6 10 9 41 7 54-43 2-87 9-132 9l-5 50c10 0 21-1 31-1 12-1 23 0 34 0 4-6 8-22 21-26 17-4 24 9 25 24l18-1c2 13 0 46-5 56-22 3-113 0-133 8-9 3-11 7-23 2-23-11-19-10-17-36 4-74 0-147-2-220zm208-4c16-2 63-1 79 3 27 6 41 15 56 29 21 21 46 55 17 84-5 6-17 12-27 15 2 4 3 7 6 9l8 8c13 13 44 33 49 46-6 4-16 5-24 8-7 2-16 7-23 8l-33-37c-2-3-3-3-5-6-7-8-14-18-24-17-7 0-30 4-36 6-3 16 6 36 6 52-1 18-17 11-41 17-3-12-1-41-2-55q0-28.5-3-57c-1-18-2-37-3-55-1-21-1-37 0-58zm36 54l1 62c8 2 39-8 47-11 54-19 41-46 6-53-11-3-44-2-54 2zm-636 170v-48c20 1 56 21 76 4 10-8 15-22-3-26-12-3-29-3-42-5-62-11-91-49-70-109 16-48 87-61 131-55 13 2 25 5 38 8 20 5 17 6 25 24 6 14 13 17 8 35-3 8-9 28-13 35-3-2-7-6-10-9-33-25-48-51-89-52-25 0-51 14-43 36 9 23 76 42 99 60 14 11 19 39 8 60-7 14-24 32-39 40-11 4-61 2-76 2zm178-205c26-4 54-4 81-5 21 0 60-8 75-2 2 12 1 26-5 35-7 9-25 2-38 7-13 5-7 19-6 33l11 120c4 38-1 36-48 37l-3-183c-16 0-32 12-53 11zm-705 57c24-23 57-42 97-45 26-3 47 4 69 16 35 20 78 80 43 130-7 10-19 21-28 28-40 30-131 59-163 6-4-5-7-12-10-17-12-18-28-33-30-56-1-22 8-48 22-62zm42 20c-12 10-22 26-14 48 4 8 8 14 14 20 3 3 5 5 8 8 36 36 64 29 103-2 8-7 28-23 25-42-3-18-18-32-29-39-17-11-33-11-57-10-25 1-35 4-50 17zm-246-117c23 2 37 46 41 68 3 16 12 52 26 63-1-26 0-51 6-77 5-20 13-47 30-54 12-4 23 3 28 12 8 17 5 85 9 117 3 26 22 89 6 106-8 9-22 7-28-2-8-12-8-54-11-73-1-9-11-70-12-73-7 24-9 58-11 84-1 17-2 70-24 73-15-48-9-95-22-114-6-9-11-17-15-28-2 33 2 87 6 122 2 15-6 24-17 27-29 6-29-38-31-55-3-28-4-55-6-82-1-25-6-57-6-80 1-23 7-36 31-34z"/>
			<g>
				<g>
					<g>
						<path fill-rule="evenodd" class="s25" d="m1766 843"/>
						<path id="Shape_x0020_from_x0020_Contour" fill-rule="evenodd" class="s26" d="m1762 1056c4 5 8 10 10 16 4 13 2 26-8 36-8 7-16 12-27 10 0 0-1 0-2 0 3 6 6 13 8 19 3 13 1 28-13 32-5 1-11 1-16 0-1 0-3-1-5-2 3 6 5 12 5 18 1 16-10 24-25 24-10 0-18-4-25-10-2 8-6 17-13 22-8 6-18 5-26 0-13-8-19-25-21-41-7 7-16 12-27 8h-1c-11-4-16-17-17-28-1-9-1-21 3-29 5-14 17-30 27-41 8-8 18-17 29-21 1-1 1-3 3-5q6-9 12-18c4-6 7-11 11-17 2-3 5-7 8-10 37-44 55-62 82-114 4-7 33-66 37-67 9-3 27 17 31 24 7 11 22 66 16 81-12 25-25 48-36 74-5 13-13 26-20 39z"/>
						<path fill-rule="evenodd" class="s27" d="m1581 1176c-11-4-11-31-7-41 7-16 33-51 52-54l-17 69c-5 7-16 29-28 26zm137-61c6 8 25 47 0 41-17-4-30-17-36-33-1-15 30 5 36-8zm-87 30c7-2 14-2 17 1 3 2 30 4 37 7 7 10 30 42 3 43-16 0-29-25-35-37-3 3-2 3-1 9 1 9 0 17-1 26-1 10-6 22-19 15-15-8-16-41-16-58 8-3 4-4 15-6zm78-81c10-11 25-6 38-6 9 10 21 27 7 40-19 19-31-10-40-1-9-4-13-23-5-33z"/>
						<path fill-rule="evenodd" class="s28" d="m1662 1027c-5 6-36 54-36 54l-17 69 3-4 4 5c8-3 4-4 15-6 7-2 14-2 17 1 3 2 30 4 37 7-2-9-15-28-9-37h1l5 7c-1-15 30 5 36-8l-4-18c-9-4-13-23-5-33 10-11 25-6 38-6 10-23 20-38 29-62 7-17 36-58 34-75-2-18-10-52-24-64-11-10-7-8-16 8-30 55-41 86-84 135q-12 13.5-24 27z"/>
					</g>
					<g>
						<path id="Shape_x0020_from_x0020_Contour_0" fill-rule="evenodd" class="s26" d="m2739 1073h1q3 1.5 6 3c6 3 11 8 15 14 3 4 4 8 6 13 7 20 4 45-7 63-5 7-13 13-21 16-10 4-22 2-29-8-2-4-4-8-4-13-5 7-11 12-20 16-6 3-13 4-20 3-13-4-16-17-14-30 1-4 3-10 5-15-8 3-16 5-24 4l-1-1c-15-3-19-15-15-28 2-8 6-16 10-23q1.5-3 3-6c-13 0-27-2-36-13-11-16-3-36 9-49-14-30-25-51-42-80-12-22-8-16-9-40-2-29-3-38 8-69 3-9 6-15 12-22 31 42 54 84 88 122 21 22 36 43 54 68 4 5 8 11 12 16 2 3 6 8 7 12 0 5 2 11 3 17 1 7 2 14 2 21 0 1 0 7 1 9z"/>
						<path fill-rule="evenodd" class="s27" d="m2722 1102c-1 17-2 36-3 54 0 22 20 15 29 2 17-24 11-71-19-74zm-45 23c-7 8-25 52 4 39 19-8 22-29 31-41v-10c-12-8-22 7-35 12zm-51-105l-8 3c-8 7-21 25-13 37 8 10 32 7 44 8 2 15-33 52-14 57 17 4 44-22 47-36-1-13-23-4-34-6-3-23 21-19 16-43-4-21-20-20-38-20z"/>
						<path fill-rule="evenodd" class="s28" d="m2620 1024l9-3c0-1 0-1 1-1 16 0 30 0 34 20 5 24-19 20-16 43 11 2 33-7 34 6l2-3 2 1-9 38c13-5 23-20 35-12v10l17-39c-10-24-1-32-18-65-2-5-4-6-1-4-30-46-71-83-101-129-5-8-35-55-39-57-6 6-4-5-7 20 0 4-5 60-5 60 1 3 41 70 46 81 5 11 11 23 16 34z"/>
					</g>
					<g>
						<path fill-rule="evenodd" class="s26" d="m2523 1047c-17 40-38 74-63 109-11 16-8 38-21 37l10-60v-8c-36-26-19 258 3 284 31 14 87 10 97 59 2 39-142 23-173 27-24 3-70 5-86-15-26-32 18-47 19-66-18-20-88 3-122 2-40-2-90-25-116 1 10 15 50 35 25 64-16 19-66 16-89 15-41-2-157 13-177-24 3-48 76-52 98-63 15-22 20-171 19-204-1-35-20-159-31-188l-43 96-6-1-8-160c-6 16-16 33-23 49-23 52-24 27-20 22-30-14-16-110-27-123-2-3-3 4-5 9-18 42-8 45-27 1-2-3-9-25-13-20-3-1-5-22-5-26 1-17 3-25 5-41 6-38-16-50-18-79-1-7-1-8-6-13-1 3-6 30-6 30-3 4-8-9-9-12-3-16 3-38 5-54 3-20 5-40 8-60 8-49 15-74 48-111l-53 15-5 15-16-8c-3-27 65-99 82-121 32-36 69-62 101-95 10-10 1-11-12-20-30-22-6-6-9-24-5-31 91 31 100 8 2-5-34-20 3-25 27-3 55 21 23-14-20-21 25-13 35-10 12 5 25 13 38 18 5-34 2-22 24-29 3-28-1-52 29-22 34 36 23 29 46-7 22-34 22 25 29 27 3-3 7-14 18-24 26 14 25 52 43 53 13 1 10-5 18-19 8-16 28-55 45-62 6 0-5 41-6 45-14 80-6 45 27 16 24-21-18 44-18 44 9 11 16 0 27-8 7-6 79-78 66-30-1 2-26 67-11 58 1-1 43-29 37-16-4 8-20 15-3 18 5 1 65-22 86-11 17 8-24 29-31 35-9 7-12 9-19 19-5 10 3 2 16 1 18-1 16 13 12 25 10 1 49-1 56-8-1-2-48-1-26-7 14-4 68 0 49 18-11 9-21 16-31 25 5 14 10 1 5 24 13 2 96 10 100 14 8 9-20 25-25 29-10 8-17 14-26 23 22 26 60 44 68 80-55-33-47-34-21 13l4 8c21 45 41 116 39 166-5-11-9-21-14-32-3-7-1-8-11 0-13 11-8 32-9 48 0 11 2 81-21 38-7-12-13-25-20-38-9 5 1 32 3 40 10 34 13 57 6 92-1 4-6 22-13 15-3-3-12-37-21-46-5 4-31 93-35 106-7 20-14 43-22 63z"/>
						<path fill-rule="evenodd" class="s29" d="m2518 1446c-35-17-45-23-87-22-7 3-12 0-20 6 3 13 32 23 46 24 10 1 56-1 61-8z"/>
						<path fill-rule="evenodd" class="s29" d="m1863 1446c15 12 41 7 60 3 11-2 48-9 53-17l-24-7c-24-2-72 1-89 21z"/>
						<path fill-rule="evenodd" class="s30" d="m2131 903l3 8h2l2-43c15 47 13 113 68 134v-9l-19-186-6 1-68 10h3z"/>
						<path fill-rule="evenodd" class="s30" d="m2202 823l17 162c36 17 53-130 47-155v-3l-63-6z"/>
						<path fill-rule="evenodd" class="s31" d="m1994 555c26 250 412 208 387-31-26-242-413-213-387 31z"/>
						<path fill-rule="evenodd" class="s32" d="m2162 519c-39 32 1 92 50 73 20-7 31-26 30-48 0-34-18-30-39-38 1 16 2 32-16 39-19 6-26-10-25-26z"/>
						<path fill-rule="evenodd" class="s33" d="m2467 1033l-7-1-21 66-35-53-6 1-103.9 181.5c-4.3-27.5 2-93.2-25.1-99.5l-17 59-1-39c-16 21-31 113-90 64-41-36-14-129-35-141l-6-2-24 86-6 43c-8-10-17-39-21-53-1-4-27-73-32-48 13 33 16 47 2 81-10-9-15-57-24-73l-35-83h-4l-12 22-17 52-25-117-4-1-41 93 2-157-2-20-3-1-58 130c-28-7-17-116-28-126l7-17 6-1 13 116c74-145 47-259 71-406 20-126 87-227 215-260 131-34 255 15 335 122 77 102 81 249 104 371l19 72-65 164c-9 27-25 54-44 75v-8c5-15 1-48 14-65zm-171 202l-5-2 3.1-5.5c0.5 3 1.1 5.5 1.9 7.5zm17-444c-33 12-69 8-103 4-45-7-64 2-106 6-59 5-109-47-124-54-16-7-20 3-7 14 13 12 58 37 75 44 45 19 50-7 62 54 11 63-3 138 56 178 82 56 185-15 145-153-8-27-32-68-1-78 55-18 94-62 126-108-23-19-35 58-123 93zm-112-50c279-15 242-418-25-402-280 16-249 417 25 402z"/>
						<path fill-rule="evenodd" class="s28" d="m1945 1412c-2-9 7-62 8-73 9-61 8-142 1-204-2-18 10-72 19-87l9 25c-6 24 17 53 22 77 7 34 0 48 19 83 75 139 364 121 356-79l4 6c14-24 5-26 0-47-2-11 12-38 19-42 6 3 16 24 20 31 11 19 6 19 2 40-12 64-6 175 6 240 1 9 1 41 1 42-7 3-12 0-20 6 3 13 32 23 46 24 10 1 56-1 61-8l19 19c-22 20-126 12-166 15-135 13-45-51-42-71-18-38-103-5-147-6-26-1-136-40-129 19 7 7 50 28 31 49-12 13-61 11-78 10-40-2-141 6-164-12l21-23c15 12 41 7 60 3 11-2 48-9 53-17l-24-7c5-4-4-5-7-13zm409-82l8-21c-25 12-37 31-74 46-34 13-65 18-102 17-78-2-114-24-175-65 4 38 88 66 119 72 68 14 105 5 169-12 19-5 42-23 55-37z"/>
						<path fill-rule="evenodd" class="s29" d="m2305 652c-26 25-45 33-79 42-21 5-87 7-101-10-109-23-144-181-57-262 81-76 232-52 274 55 38 41 0 140-37 175zm-93-4c153-34 84-248-47-211-150 42-85 240 47 211z"/>
						<path fill-rule="evenodd" class="s29" d="m2379 1154l-8-32-77 143h-8l-13-104-22 75-9-20c-14 4-52 56-99 3-35-41-15-84-27-122l-17 140-41-65-12 40c-22 1-29-50-35-67-6-18-26-57-29-72-6 24 17 53 22 77 7 34 0 48 19 83 75 139 364 121 356-79z"/>
						<path fill-rule="evenodd" class="s34" d="m2117 526c23-94 169-69 147 33-20 95-170 67-147-33zm95 66c20-7 31-26 30-48 0-34-18-30-39-38-7-8-14-12-26-7-9 3-11 12-15 20-39 32 1 92 50 73z"/>
						<path fill-rule="evenodd" class="s35" d="m2131 903c-2 45 7 123 64 132 23 3 62 3 77-18 27-37 17-35 21-76-15 22-17 74-71 71l1 20-6 2-11-41v9c-55-21-53-87-68-134l-2 43h-2z"/>
						<path fill-rule="evenodd" class="s36" d="m2202 823l1-2 63 6v3c6 25-11 172-47 155l3 27c54 3 56-49 71-71l-17-126-80-6z"/>
						<path fill-rule="evenodd" class="s28" d="m2125 684h29c-6-4-10 0-19-6-7-5-4-7-14-11-36-16-63-38-78-76-20-51-5-117 35-154 62-57 156-72 220-12 8 8 37 54 44 52-42-107-193-131-274-55-87 81-52 239 57 262z"/>
						<path fill-rule="evenodd" class="s28" d="m1964 1044l-19-115-7-1-22 45c-34 2-33-36-37-59l-2 157 41-93 4 1 25 117z"/>
						<path fill-rule="evenodd" class="s37" d="m1830 1472l-8-14c-21-2-126 8-136 25 33 30 188 30 235 31 44 2 88-2 131 0 37 1 76 11 121 12 37 0 88-2 124-10 32-6 93-4 128-4 48-1 201-8 241-24l-117-20c2 39-142 23-173 27-24 3-70 5-86-15-26-32 18-47 19-66-18-20-88 3-122 2-40-2-90-25-116 1 10 15 50 35 25 64-16 19-66 16-89 15-41-2-157 13-177-24z"/>
						<path fill-rule="evenodd" class="s28" d="m1868 296l-8 4 41 21v2l-4 3h-1l-32 31c-46 22-132 132-151 182l53-15 19-11c-15 35-34 36-47 91-7 31-9 59-12 90-1 6-7 33-6 35 0 1 6 10 7 8 2-3 4-9 7-13 9-15 14-22 21-39 4-9 8-19 12-29 6 22 6 53 7 75 0 20 5 35 7 53 1 13-6 26-11 39-10 29-16 54-8 85 2 7 5 12 8 18l-3-1 24-68 3 1c27 22 26 47 27 80l40-93c4-29-2-71-1-104v-1-2-1-2-2-1-2l1-15v-1c1-26 2-51 3-77 5-62 17-119 46-174 106-202 413-226 554 0 47 74 93 275 75 359l19 72c2-9 4-17 7-26 9-36 19-72 28-107 5-19 10-37 15-55l7-1c3 14 6 26 11 40 4 14 4 28 8 43l1 1q1.5 6 3 12c2-2 2-1 2-5-1-8-2-17-2-25 0-12-2-17 0-29 2-9 3-30 14-32 10-2 11 8 6-17l-1-3c-4-22-8-42-16-64-4-11-39-76-39-79 13-3 18-3 21-9l-75-50c13-7 76-19 76-39l-118-16 1-5 28-5-30-25c17-2 46 2 48-24l-95 20-2-7 24-33-43 24c-9-29 29-57 49-71-42-1-57 26-85 41l-4-3 29-35-13-7 17-15v-3c-22-1-33 18-44 21-5-24 23-74 23-80-13-6-37 19-47 28-15 12-29 24-45 37l-11-5 32-49-6-5-37 43h-3l14-93h4c-16-15-58 61-58 81l-17-3-36-67-20 46-9-54c-17-12-29 51-36 59l-50-60c-25 22 0 42 0 58l-26-9-3 3-1 31c-20-9-48-43-83-21l26 26-3 2c-29 3-24-21-64 1l28 18c-13 18-33 2-61-7-9-4-13-4-21-6-11-3-20 8-8 16z"/>
						<path fill-rule="evenodd" class="s32" d="m1868 276c9 2 20 6 29 10 28 9 48 25 61 7l-28-18c40-22 35 2 64-1l3-2-26-26c35-22 63 12 83 22l1-32 3-3 26 9c0-16-25-36 0-58l50 60c7-8 19-71 36-59l9 54 20-46 36 67v11l-6 3-30-52c-9 12-5 40-23 32-11-4-9-32-17-42-2 8-15 49-13 53l-60-48 13 43c-6 2-31-13-38-16v52c-14-20-35-44-64-43l14 29-4 6-46-6 9 22c-11 4-14 23-54 3-20-10-38-16-59-20-12-8 1-14 11-11zm494-22c10-9 34-34 47-28 0 6-28 56-23 80 11-3 22-22 44-21v3l-17 15c-11 4-19 16-31 16-18-13-3-48 1-65-22 13-47 48-79 51 2-7 10-8 13-14 16-13 30-25 45-37zm-52-72h-4l-14 93h3l37-43 6 5-32 49c-24 12-23-40-23-53l-21 41-10-11c0-20 42-96 58-81z"/>
					</g>
				</g>
				<path fill-rule="evenodd" class="s4" d="m2384 312c1 23 3 28 9 49 5 5 10 16 14 22 4 6 13 15 18 20 11 12 28 24 43 31 6-11 28-11 39-16 28-12 48-36 78-51 17-8 27-13 44-23 38-24 60-34 89-73 18-24 26-44 25-74 0-11 3-3-2-21-9-29-22-53-43-76-9-9-8-13-21-21-32-20-39-35-81-41-13-2-24-2-37 1 12 14 24 20 37 38 24 32 34 79 0 108-12 11-15 17-30 28-28 19-68 38-101 44-5 1-14 3-17 7-1 2-15 4-19 5-20 8-34 24-45 43zm312-212zm0 195q0-1.5 0 0zm45-85zm-305 99q0 1.5 0 0z"/>
				<path fill-rule="evenodd" class="s38" d="m2675 81c6 0 12 5 15 10 7 8 2 7-5 7-23 0-31 0-54 4-5 1-16 5-20-2-3-5-1-7 3-10 15-10 39-11 56-9 2 0 3 0 5 0zm-86 282c-31 14-38 27-63 44-4 2-23 12-27 12 0 0-17-11-18-12-36-25-52-83-41-125 3-12 3-9 8-17 2-3 16-8 19-6 10 5-3 100 60 107 13 1 50-4 52-19 2-13-51-74-58-99-3-11 17-17 25-13 15 7 48 66 58 82 7 11 9 12 16 20 7 13-24 23-31 26zm12-178c26 1 69 34 86 53 13 12 25 25 15 43-4 7-12 23-19 11-8-14-12-25-23-37-10-11-57-45-73-50-8-2 6-19 12-20zm138 22c-6 1-10-1-16-3-23-9-31-13-56-18-15-4-45-8-57-14 2-18 16-14 30-12 28 4 82 6 98 33 2 6 3 9 1 14zm-118-78c7-11 57-10 70-8 14 2 37 14 35 30-8 1-20-5-28-7-28-7-52 1-73-4-5-2-8-7-4-11z"/>
				<path fill-rule="evenodd" class="s4" d="m1965 337c0 24-2 29-8 50-4 5-9 16-13 22-4 6-12 15-17 20-11 13-28 25-43 33-6-11-27-11-39-15-28-11-49-35-79-49-17-8-28-12-44-22-40-23-62-33-92-70-18-24-27-43-27-73 0-11-3-4 2-21 8-30 21-54 41-77 8-10 7-14 20-22 31-21 38-37 80-44 13-2 24-2 36 1-10 14-23 21-35 38-23 34-32 80 3 109 12 10 16 16 31 26 28 19 69 36 102 42 5 0 14 2 17 7 1 1 15 3 19 4 21 8 35 23 46 41zm-312-8q0-1.5 0 0zm-48-83q0-1.5 0 0zm308 91z"/>
				<path fill-rule="evenodd" class="s38" d="m1673 115c17-3 41-3 56 7 5 3 6 5 3 10-3 7-14 3-20 2-22-3-31-3-53-2-8 0-12 1-6-7 4-5 9-10 15-10 2 0 3 0 5 0zm57 254c7-8 9-9 15-20 10-17 42-77 56-84 8-4 29 1 26 13-7 25-58 87-56 100 3 15 40 19 53 17 62-8 47-103 57-108 3-2 17 2 19 6 5 8 5 5 9 17 11 41-2 99-38 125-1 1-18 12-18 12-4 1-23-8-27-11-25-16-33-28-64-41-8-4-39-13-32-26zm17-152c6 0 21 17 12 20-15 5-61 40-72 52-10 12-14 23-21 37-7 12-16-4-19-11-11-17 0-30 13-43 17-19 59-53 85-55zm-139 12c15-28 69-32 97-36 14-3 28-7 30 11-11 7-41 11-56 15-25 6-33 10-56 20-5 2-9 4-15 4-2-6-1-9 0-14zm111-57c-21 5-44-2-72 7-8 2-20 8-28 7-2-16 21-28 34-31 13-2 63-4 71 6 3 5 1 9-5 11z"/>
			</g>
		</g>
	</g>
</svg>